<svg width="900" viewBox="0 0 900 860" xmlns="http://www.w3.org/2000/svg" font-family="ui-sans-serif, system-ui, sans-serif">
  <defs>
    <marker id="arrow" viewBox="0 0 10 10" refX="8" refY="5" markerWidth="6" markerHeight="6" orient="auto-start-reverse">
      <path d="M2 1L8 5L2 9" fill="none" stroke="#888" stroke-width="1.5" stroke-linecap="round" stroke-linejoin="round"/>
    </marker>
  </defs>

  <!-- Background -->
  <rect width="900" height="860" fill="#ffffff" rx="12"/>

  <!-- Table Header -->
  <rect x="40" y="20" width="820" height="46" rx="10" fill="#EEEDFE" stroke="#AFA9EC" stroke-width="1"/>
  <text x="450" y="48" text-anchor="middle" font-size="16" font-weight="600" fill="#3C3489">wazuh_events</text>
  <text x="450" y="78" text-anchor="middle" font-size="12" fill="#888">ClickHouse · MergeTree · 28 alan</text>

  <!-- ── CORE EVENT ── -->
  <rect x="40" y="90" width="200" height="28" rx="6" fill="#E6F1FB" stroke="#85B7EB" stroke-width="0.8"/>
  <text x="140" y="109" text-anchor="middle" font-size="12" font-weight="600" fill="#0C447C">Core event</text>

  <!-- rows -->
  <rect x="40" y="122" width="200" height="24" rx="3" fill="#f8f9fa" stroke="#ddd" stroke-width="0.5"/>
  <text x="52" y="139" font-size="11" fill="#333">ts</text>
  <text x="236" y="139" text-anchor="end" font-size="11" fill="#555" font-family="ui-monospace,monospace">DateTime</text>

  <rect x="40" y="149" width="200" height="24" rx="3" fill="#fff" stroke="#ddd" stroke-width="0.5"/>
  <text x="52" y="166" font-size="11" fill="#333">agent_name</text>
  <text x="236" y="166" text-anchor="end" font-size="11" fill="#555" font-family="ui-monospace,monospace">String</text>

  <rect x="40" y="176" width="200" height="24" rx="3" fill="#f8f9fa" stroke="#ddd" stroke-width="0.5"/>
  <text x="52" y="193" font-size="11" fill="#333">agent_ip</text>
  <text x="236" y="193" text-anchor="end" font-size="11" fill="#555" font-family="ui-monospace,monospace">String</text>

  <rect x="40" y="203" width="200" height="24" rx="3" fill="#fff" stroke="#ddd" stroke-width="0.5"/>
  <text x="52" y="220" font-size="11" fill="#333">src_ip</text>
  <text x="236" y="220" text-anchor="end" font-size="11" fill="#555" font-family="ui-monospace,monospace">String</text>

  <rect x="40" y="230" width="200" height="24" rx="3" fill="#f8f9fa" stroke="#ddd" stroke-width="0.5"/>
  <text x="52" y="247" font-size="11" fill="#333">event_id</text>
  <text x="236" y="247" text-anchor="end" font-size="11" fill="#555" font-family="ui-monospace,monospace">String</text>

  <rect x="40" y="257" width="200" height="24" rx="3" fill="#fff" stroke="#ddd" stroke-width="0.5"/>
  <text x="52" y="274" font-size="11" fill="#333">location</text>
  <text x="236" y="274" text-anchor="end" font-size="11" fill="#555" font-family="ui-monospace,monospace">String</text>

  <rect x="40" y="284" width="200" height="24" rx="3" fill="#f8f9fa" stroke="#ddd" stroke-width="0.5"/>
  <text x="52" y="301" font-size="11" fill="#333">decoder</text>
  <text x="236" y="301" text-anchor="end" font-size="11" fill="#555" font-family="ui-monospace,monospace">String</text>

  <rect x="40" y="311" width="200" height="24" rx="3" fill="#fff" stroke="#ddd" stroke-width="0.5"/>
  <text x="52" y="328" font-size="11" fill="#333">full_log</text>
  <text x="236" y="328" text-anchor="end" font-size="11" fill="#555" font-family="ui-monospace,monospace">String</text>

  <!-- ── RULE ── -->
  <rect x="40" y="356" width="200" height="28" rx="6" fill="#FAEEDA" stroke="#EF9F27" stroke-width="0.8"/>
  <text x="140" y="375" text-anchor="middle" font-size="12" font-weight="600" fill="#633806">Rule</text>

  <rect x="40" y="388" width="200" height="24" rx="3" fill="#f8f9fa" stroke="#ddd" stroke-width="0.5"/>
  <text x="52" y="405" font-size="11" fill="#333">rule_id</text>
  <text x="236" y="405" text-anchor="end" font-size="11" fill="#555" font-family="ui-monospace,monospace">UInt32</text>

  <rect x="40" y="415" width="200" height="24" rx="3" fill="#fff" stroke="#ddd" stroke-width="0.5"/>
  <text x="52" y="432" font-size="11" fill="#333">rule_desc</text>
  <text x="236" y="432" text-anchor="end" font-size="11" fill="#555" font-family="ui-monospace,monospace">String</text>

  <rect x="40" y="442" width="200" height="24" rx="3" fill="#f8f9fa" stroke="#ddd" stroke-width="0.5"/>
  <text x="52" y="459" font-size="11" fill="#333">rule_groups</text>
  <text x="236" y="459" text-anchor="end" font-size="11" fill="#555" font-family="ui-monospace,monospace">String</text>

  <rect x="40" y="469" width="200" height="24" rx="3" fill="#fff" stroke="#ddd" stroke-width="0.5"/>
  <text x="52" y="486" font-size="11" fill="#333">severity</text>
  <text x="236" y="486" text-anchor="end" font-size="11" fill="#555" font-family="ui-monospace,monospace">UInt8</text>

  <rect x="40" y="496" width="200" height="24" rx="3" fill="#f8f9fa" stroke="#ddd" stroke-width="0.5"/>
  <text x="52" y="513" font-size="11" fill="#333">fired_times</text>
  <text x="236" y="513" text-anchor="end" font-size="11" fill="#555" font-family="ui-monospace,monospace">UInt32</text>

  <rect x="40" y="523" width="200" height="24" rx="3" fill="#fff" stroke="#ddd" stroke-width="0.5"/>
  <text x="52" y="540" font-size="11" fill="#333">compliance</text>
  <text x="236" y="540" text-anchor="end" font-size="11" fill="#555" font-family="ui-monospace,monospace">String</text>

  <!-- ── IOC / THREAT INTEL (right, top) ── -->
  <rect x="260" y="90" width="420" height="28" rx="6" fill="#FAECE7" stroke="#F0997B" stroke-width="0.8"/>
  <text x="470" y="109" text-anchor="middle" font-size="12" font-weight="600" fill="#4A1B0C">IOC / Threat intel</text>

  <!-- 2 columns inside -->
  <rect x="260" y="122" width="200" height="24" rx="3" fill="#f8f9fa" stroke="#ddd" stroke-width="0.5"/>
  <text x="272" y="139" font-size="11" fill="#333">ioc_matched</text>
  <text x="456" y="139" text-anchor="end" font-size="11" fill="#555" font-family="ui-monospace,monospace">UInt8</text>

  <rect x="470" y="122" width="210" height="24" rx="3" fill="#f8f9fa" stroke="#ddd" stroke-width="0.5"/>
  <text x="482" y="139" font-size="11" fill="#333">ioc_type</text>
  <text x="676" y="139" text-anchor="end" font-size="11" fill="#555" font-family="ui-monospace,monospace">String</text>

  <rect x="260" y="149" width="200" height="24" rx="3" fill="#fff" stroke="#ddd" stroke-width="0.5"/>
  <text x="272" y="166" font-size="11" fill="#333">ioc_value</text>
  <text x="456" y="166" text-anchor="end" font-size="11" fill="#555" font-family="ui-monospace,monospace">String</text>

  <rect x="470" y="149" width="210" height="24" rx="3" fill="#fff" stroke="#ddd" stroke-width="0.5"/>
  <text x="482" y="166" font-size="11" fill="#333">ioc_description</text>
  <text x="676" y="166" text-anchor="end" font-size="11" fill="#555" font-family="ui-monospace,monospace">String</text>

  <rect x="260" y="176" width="200" height="24" rx="3" fill="#f8f9fa" stroke="#ddd" stroke-width="0.5"/>
  <text x="272" y="193" font-size="11" fill="#333">domain</text>
  <text x="456" y="193" text-anchor="end" font-size="11" fill="#555" font-family="ui-monospace,monospace">String</text>

  <rect x="470" y="176" width="210" height="24" rx="3" fill="#f8f9fa" stroke="#ddd" stroke-width="0.5"/>
  <text x="482" y="193" font-size="11" fill="#333">md5</text>
  <text x="676" y="193" text-anchor="end" font-size="11" fill="#555" font-family="ui-monospace,monospace">String</text>

  <rect x="260" y="203" width="200" height="24" rx="3" fill="#fff" stroke="#ddd" stroke-width="0.5"/>
  <text x="272" y="220" font-size="11" fill="#333">opencti_score</text>
  <text x="456" y="220" text-anchor="end" font-size="11" fill="#555" font-family="ui-monospace,monospace">UInt8</text>

  <rect x="470" y="203" width="210" height="24" rx="3" fill="#fff" stroke="#ddd" stroke-width="0.5"/>
  <text x="482" y="220" font-size="11" fill="#333">tlp_level</text>
  <text x="676" y="220" text-anchor="end" font-size="11" fill="#555" font-family="ui-monospace,monospace">String</text>

  <rect x="260" y="230" width="200" height="24" rx="3" fill="#f8f9fa" stroke="#ddd" stroke-width="0.5"/>
  <text x="272" y="247" font-size="11" fill="#333">threat_actor</text>
  <text x="456" y="247" text-anchor="end" font-size="11" fill="#555" font-family="ui-monospace,monospace">String</text>

  <rect x="470" y="230" width="210" height="24" rx="3" fill="#f8f9fa" stroke="#ddd" stroke-width="0.5"/>
  <text x="482" y="247" font-size="11" fill="#333">mitre_technique</text>
  <text x="676" y="247" text-anchor="end" font-size="11" fill="#555" font-family="ui-monospace,monospace">String</text>

  <rect x="260" y="257" width="420" height="24" rx="3" fill="#fff" stroke="#ddd" stroke-width="0.5"/>
  <text x="272" y="274" font-size="11" fill="#333">cve</text>
  <text x="676" y="274" text-anchor="end" font-size="11" fill="#555" font-family="ui-monospace,monospace">String</text>

  <!-- ── AI ANALYSIS ── -->
  <rect x="260" y="300" width="420" height="28" rx="6" fill="#E1F5EE" stroke="#5DCAA5" stroke-width="0.8"/>
  <text x="470" y="319" text-anchor="middle" font-size="12" font-weight="600" fill="#04342C">AI analysis (Ollama)</text>

  <rect x="260" y="332" width="200" height="24" rx="3" fill="#f8f9fa" stroke="#ddd" stroke-width="0.5"/>
  <text x="272" y="349" font-size="11" fill="#333">ai_analysis</text>
  <text x="456" y="349" text-anchor="end" font-size="11" fill="#555" font-family="ui-monospace,monospace">String</text>

  <rect x="470" y="332" width="210" height="24" rx="3" fill="#f8f9fa" stroke="#ddd" stroke-width="0.5"/>
  <text x="482" y="349" font-size="11" fill="#333">ai_analyzed_at</text>
  <text x="676" y="349" text-anchor="end" font-size="11" fill="#555" font-family="ui-monospace,monospace">DateTime</text>

  <!-- ── DATA FLOW ── -->
  <text x="450" y="408" text-anchor="middle" font-size="11" fill="#aaa">── veri akışı ──</text>

  <!-- Wazuh -->
  <rect x="270" y="420" width="110" height="36" rx="8" fill="#F1EFE8" stroke="#B4B2A9" stroke-width="0.8"/>
  <text x="325" y="443" text-anchor="middle" font-size="12" font-weight="600" fill="#2C2C2A">Wazuh</text>

  <!-- Go poller -->
  <rect x="410" y="420" width="110" height="36" rx="8" fill="#E6F1FB" stroke="#85B7EB" stroke-width="0.8"/>
  <text x="465" y="443" text-anchor="middle" font-size="12" font-weight="600" fill="#0C447C">Go poller</text>

  <!-- arrow Wazuh → Go -->
  <line x1="380" y1="438" x2="408" y2="438" stroke="#888" stroke-width="1.2" marker-end="url(#arrow)"/>
  <text x="394" y="432" text-anchor="middle" font-size="10" fill="#aaa">alerts</text>

  <!-- wazuh_events table node -->
  <rect x="355" y="492" width="140" height="36" rx="8" fill="#EEEDFE" stroke="#AFA9EC" stroke-width="0.8"/>
  <text x="425" y="515" text-anchor="middle" font-size="12" font-weight="600" fill="#3C3489">wazuh_events</text>

  <!-- Go → wazuh_events -->
  <line x1="465" y1="456" x2="430" y2="490" stroke="#888" stroke-width="1.2" marker-end="url(#arrow)"/>
  <text x="462" y="480" text-anchor="start" font-size="10" fill="#aaa">INSERT</text>

  <!-- OpenCTI -->
  <rect x="260" y="566" width="110" height="36" rx="8" fill="#FAECE7" stroke="#F0997B" stroke-width="0.8"/>
  <text x="315" y="589" text-anchor="middle" font-size="12" font-weight="600" fill="#4A1B0C">OpenCTI</text>

  <!-- Ollama -->
  <rect x="430" y="566" width="110" height="36" rx="8" fill="#E1F5EE" stroke="#5DCAA5" stroke-width="0.8"/>
  <text x="485" y="589" text-anchor="middle" font-size="12" font-weight="600" fill="#04342C">Ollama</text>

  <!-- OpenCTI → table -->
  <line x1="315" y1="566" x2="390" y2="530" stroke="#D85A30" stroke-width="1.2" marker-end="url(#arrow)"/>
  <text x="330" y="550" font-size="10" fill="#D85A30">IOC enrich</text>

  <!-- Ollama → table -->
  <line x1="485" y1="566" x2="445" y2="530" stroke="#1D9E75" stroke-width="1.2" marker-end="url(#arrow)"/>
  <text x="456" y="556" font-size="10" fill="#1D9E75">AI analysis</text>

  <!-- React -->
  <rect x="365" y="642" width="130" height="36" rx="8" fill="#EAF3DE" stroke="#97C459" stroke-width="0.8"/>
  <text x="430" y="665" text-anchor="middle" font-size="12" font-weight="600" fill="#173404">React frontend</text>

  <!-- table → React -->
  <line x1="425" y1="528" x2="425" y2="640" stroke="#888" stroke-width="1.2" marker-end="url(#arrow)"/>
  <text x="436" y="592" font-size="10" fill="#aaa">SELECT</text>

  <!-- Legend -->
  <text x="40" y="622" font-size="11" font-weight="600" fill="#555">Kategoriler</text>
  <rect x="40" y="632" width="12" height="12" rx="2" fill="#E6F1FB" stroke="#85B7EB" stroke-width="0.5"/>
  <text x="58" y="643" font-size="11" fill="#333">Core event</text>
  <rect x="40" y="652" width="12" height="12" rx="2" fill="#FAEEDA" stroke="#EF9F27" stroke-width="0.5"/>
  <text x="58" y="663" font-size="11" fill="#333">Rule</text>
  <rect x="40" y="672" width="12" height="12" rx="2" fill="#FAECE7" stroke="#F0997B" stroke-width="0.5"/>
  <text x="58" y="683" font-size="11" fill="#333">IOC / Threat intel</text>
  <rect x="40" y="692" width="12" height="12" rx="2" fill="#E1F5EE" stroke="#5DCAA5" stroke-width="0.5"/>
  <text x="58" y="703" font-size="11" fill="#333">AI analysis</text>
</svg>
